<?xml version="1.0" encoding="UTF-8" standalone="no"?>
<svg width="100%" height="100%" viewBox="0 0 1667 555" version="1.1" xmlns="http://www.w3.org/2000/svg" xmlns:xlink="http://www.w3.org/1999/xlink" xml:space="preserve" xmlns:serif="http://www.serif.com/" style="fill-rule:evenodd;clip-rule:evenodd;stroke-linejoin:round;stroke-miterlimit:2;">
    <g transform="matrix(4.16667,0,0,4.16667,0,0)">
        <g id="svgg" transform="matrix(1,0,0,1,0,-83)">
            <path id="path0" d="M90.753,116.018C87.641,117.086 84.443,119.693 82.346,122.87C81.159,124.67 62.522,174.538 62.073,177.118C61.351,181.265 63.445,185.083 67.214,186.494C69.257,187.258 93.947,187.372 96.451,186.628C100.454,185.441 104.331,182.333 106.049,178.937C106.589,177.868 110.432,163.144 110.434,162.133C110.435,161.658 110.155,161.105 109.664,160.614L108.891,159.841L101.62,159.841C92.584,159.841 93.513,159.307 91.637,165.588L90.275,170.145L82.738,170.145L95.288,132.497L98.371,132.422C100.066,132.381 101.453,132.384 101.453,132.429C101.453,132.474 100.979,134.112 100.4,136.07C99.125,140.381 99.1,140.884 100.112,141.896L100.884,142.668L107.575,142.665C114.729,142.66 115.263,142.576 115.933,141.342C116.385,140.51 116.801,138.691 111.865,159.124C107.375,177.709 107.256,178.463 108.342,181.367C109.046,183.247 110.986,185.261 113.007,186.208L114.531,186.922L127.979,186.995C139.723,187.059 141.614,187.014 142.895,186.642C147.562,185.285 151.297,181.481 152.16,177.205C153.338,171.365 158.816,125.499 158.549,123.709C158.011,120.104 155.8,117.114 152.858,116.014C150.476,115.122 130.405,115.258 128.126,116.181C125.17,117.378 121.866,120.725 120.599,123.809L119.96,125.363L119.95,124.174C119.922,120.586 118.043,117.465 115.081,116.086L113.738,115.461L103.038,115.467C92.933,115.473 92.25,115.504 90.753,116.018M163.216,115.91C162.537,116.669 162.381,117.989 158.89,152.54L155.557,185.53L156.077,186.226L156.596,186.922L170.306,186.922C182.885,186.922 184.167,186.881 185.843,186.427C195.536,183.799 200.743,177.581 200.88,168.469C200.986,161.46 200.473,126.534 200.242,125.027C199.652,121.175 197.368,117.863 194.243,116.329L192.734,115.588L178.186,115.513C164.51,115.443 163.612,115.467 163.216,115.91M203.366,115.916C203.136,116.171 202.874,116.678 202.784,117.041C202.639,117.625 204.819,180.6 205.119,184.498C205.336,187.316 203.255,187.067 225.972,186.99L245.782,186.922L246.326,186.193L246.871,185.464L245.892,178.406C245.07,172.477 244.827,171.262 244.378,170.813C243.861,170.296 243.482,170.275 233.196,170.2L222.548,170.123L222.238,165.973C222.067,163.691 221.928,161.377 221.928,160.832L221.929,159.841L237.821,159.841L238.594,159.069C239.534,158.128 239.54,158.521 238.476,150.514C237.332,141.901 238.524,142.835 228.461,142.668L220.476,142.536L220.169,138.705C220,136.598 219.851,134.31 219.838,133.62L219.815,132.365L228.468,132.361C237.79,132.357 238.144,132.309 238.782,130.978C239.262,129.977 237.519,117.261 236.764,116.248L236.271,115.588L220.027,115.52C204.816,115.456 203.758,115.481 203.366,115.916M253.369,115.984C252.51,116.842 252.656,117.8 256.285,135.097C258.179,144.129 261.335,159.188 263.297,168.56C265.706,180.066 267.02,185.816 267.344,186.262L267.824,186.922L284.236,187.062L284.786,186.362C285.588,185.342 285.864,186.639 278.855,158.405C275.291,144.044 272.408,132.28 272.449,132.263C272.49,132.246 274.944,132.292 277.903,132.365L283.283,132.497L291.341,159.313C295.772,174.062 299.582,186.338 299.806,186.592C300.178,187.013 300.933,187.054 308.344,187.054L316.474,187.054L317.022,186.358C317.957,185.169 317.791,184.597 308.851,158.26C304.055,144.134 300.132,132.529 300.132,132.471C300.132,132.412 302.103,132.365 304.512,132.365L308.891,132.365L309.697,131.559C310.791,130.465 310.701,129.986 308.074,122.979C305.653,116.521 305.35,115.853 304.744,115.62C303.76,115.243 269.361,115.44 268.81,115.826C268.357,116.143 268.21,116.143 267.776,115.826C266.86,115.156 254.056,115.297 253.369,115.984M113.257,120.633C115.582,122.358 115.623,123.64 113.606,131.461C112.734,134.842 112.021,137.677 112.021,137.761C112.021,137.844 110.408,137.913 108.437,137.913C105.148,137.913 104.863,137.875 104.985,137.45C105.057,137.196 105.498,135.74 105.964,134.214C107.831,128.102 107.754,128.031 99.23,127.926C92.839,127.848 92.789,127.852 92.1,128.455C91.343,129.117 77.147,171.027 77.147,172.598C77.147,173.084 77.424,173.634 77.919,174.129L78.691,174.901L85.515,174.901C94.597,174.9 93.764,175.362 95.528,169.353L96.885,164.729L104.959,164.583L104.802,165.449C103.686,171.603 101.611,177.336 99.896,179.003C96.401,182.4 95.562,182.563 81.534,182.563L70.096,182.563L68.932,181.948C67.696,181.297 66.591,179.741 66.583,178.644C66.577,177.868 85.132,127.946 86.087,126.167C87.369,123.778 90.313,121.269 92.958,120.31C94.773,119.653 112.312,119.931 113.257,120.633M151.408,120.719C152.469,121.438 153.245,122.506 153.778,123.98C154.329,125.503 148.01,175.365 146.999,177.467C146.218,179.094 144.5,180.688 142.436,181.701L140.951,182.431L128.93,182.507C114.528,182.599 114.237,182.539 112.762,179.204C112.132,177.78 111.445,181.047 118.669,151.123C125.59,122.453 125.405,122.944 130.119,120.692L131.704,119.934L141.083,120.007L150.462,120.079L151.408,120.719M192.338,120.879C193.681,121.781 195.116,123.748 195.484,125.19C195.879,126.736 196.37,169.263 196.013,170.974C194.824,176.675 189.784,180.917 182.695,182.184C180.415,182.592 160.634,182.754 160.634,182.366C160.634,181.986 166.704,122.181 166.856,121.06L167.01,119.927L179.08,120.003L191.149,120.079L192.338,120.879M233.387,123.448C233.643,125.373 233.912,127.157 233.985,127.411C234.109,127.845 233.569,127.873 225.229,127.873L216.34,127.873L215.568,128.645C214.655,129.558 214.666,128.748 215.428,138.396C216.219,148.408 214.977,147.271 225.228,147.369L233.269,147.446L233.409,148.294C233.486,148.76 233.672,150.152 233.823,151.387C233.974,152.622 234.161,153.953 234.24,154.345L234.382,155.057L226.333,155.138C215.679,155.244 216.591,154.15 217.51,165.731C218.324,175.998 216.615,174.75 229.994,174.843C236.705,174.89 240.687,175.014 240.687,175.175C240.687,175.455 241.381,180.312 241.62,181.704L241.768,182.563L209.825,182.563L209.666,180.119C209.579,178.775 209.095,166.024 208.59,151.783C208.086,137.543 207.599,124.554 207.509,122.919L207.345,119.947L232.923,119.947L233.387,123.448M272.179,151.189L279.94,182.431L275.599,182.503C273.212,182.543 271.205,182.521 271.138,182.455C271.01,182.327 270.288,178.927 263.805,147.952C261.57,137.272 259.333,126.602 258.834,124.24L257.927,119.947L264.418,119.947L272.179,151.189M303.038,123.382C303.723,125.198 304.369,126.952 304.472,127.279L304.659,127.873L296.128,127.873L295.356,128.645C294.131,129.87 294.104,129.774 303.276,156.809L311.969,182.431L307.73,182.503C305.399,182.543 303.444,182.528 303.385,182.469C303.326,182.41 299.833,170.904 295.624,156.901C291.415,142.897 287.789,130.889 287.568,130.216C286.851,128.04 286.801,128.023 280.762,127.873L275.449,127.741L274.622,124.571C274.168,122.827 273.715,121.072 273.616,120.671L273.437,119.943L301.791,120.079L303.038,123.382M132.194,128.056C131.031,128.284 130.863,128.945 126.44,150.771C121.844,173.443 121.846,173.429 123.051,174.377C124.167,175.255 137.561,175.178 138.595,174.288C139.293,173.689 139.381,173.231 142.829,152.426C146.795,128.489 146.654,129.704 145.595,128.645L144.823,127.873L138.792,127.909C135.475,127.929 132.506,127.995 132.194,128.056M173.811,128.618L172.977,129.364L171.703,149.556C170.146,174.231 170.168,173.115 171.21,174.157L172.011,174.958L176.956,174.835C182.577,174.695 183.935,174.398 185.648,172.931C187.791,171.097 187.693,171.961 188.252,150.066C188.798,128.712 188.814,129.592 187.867,128.645L187.095,127.873L174.645,127.873L173.811,128.618M141.331,132.695C141.322,132.876 139.921,141.347 138.217,151.519L135.119,170.013L131.201,170.086L127.284,170.16L127.452,169.489C127.545,169.121 129.222,160.884 131.179,151.186C133.136,141.488 134.801,133.286 134.877,132.959C135.043,132.254 141.366,131.995 141.331,132.695M183.885,134.544C183.888,138.585 183.079,167.894 182.949,168.489C182.667,169.772 175.165,171.077 175.165,169.844C175.165,169.079 177.283,135.575 177.429,134.016L177.585,132.365L183.884,132.365L183.885,134.544" style="fill:rgb(252,4,252);" />
            <path id="path2" d="M173.777,87.102C173.533,87.347 172.778,89.07 172.099,90.933C171.121,93.619 170.764,94.32 170.373,94.32C169.76,94.32 169.761,94.239 170.41,92.533C171.132,90.633 171.11,89.186 170.351,88.654C169.677,88.182 168.01,88.106 167.588,88.528C167.384,88.732 167.011,88.733 166.28,88.53C163.918,87.874 162.506,88.125 161.265,89.42C158.287,92.529 159.368,96.697 163.153,96.697C164.263,96.697 164.294,96.435 162.701,100.576L161.666,103.265L160.762,102.888C157.668,101.594 154.822,103.648 154.822,107.175C154.822,109.789 156.369,111.229 159.178,111.229C162.79,111.229 164.161,109.556 167.119,101.539C168.247,98.482 168.46,98.088 168.866,98.305C169.293,98.534 169.258,98.746 168.391,101.126C165.533,108.972 165.379,109.667 166.283,110.666C166.986,111.442 203.345,111.531 204.04,110.758C204.265,110.508 205.121,108.411 205.943,106.098C207.748,101.016 208.275,99.861 209.161,99.043L209.841,98.415L209.643,99.075C209.534,99.439 208.746,101.632 207.893,103.95C205.446,110.594 205.639,111.229 210.112,111.229C212.864,111.229 213.67,110.989 214.707,109.867C215.225,109.305 218.494,102.052 218.494,101.463C218.494,101.087 221.411,102.837 221.711,103.393C222.341,104.562 220.972,106.139 218.677,106.888C216.801,107.5 216.645,107.672 216.645,109.128C216.645,111.155 216.816,111.229 221.518,111.229C227.306,111.229 228.137,110.897 229.356,108.102C230.542,105.38 228.939,103.153 226.667,104.369C226.21,104.613 226.156,104.55 226.156,103.772C226.156,101.708 225.08,100.004 222.985,98.752C221.519,97.874 220.644,96.949 220.315,95.927C219.861,94.517 219.606,94.32 218.238,94.32C216.599,94.32 216.367,94.606 214.919,98.423C213.885,101.148 213.467,102.097 213.477,101.695C213.479,101.635 213.657,101.002 213.873,100.288C214.687,97.608 214.219,95.525 212.611,94.663C211.13,93.869 206.134,94.095 205.35,94.991C204.974,95.421 204.756,95.531 204.756,95.291C204.756,93.284 197.821,93.944 195.392,96.183L194.188,97.293L194.188,96.103C194.188,95.367 194.339,94.787 194.584,94.584C196.22,93.226 194.261,90.368 192.224,91.142C191.426,91.446 191.436,91.476 191.942,90.265C192.871,88.041 192.212,86.658 190.225,86.658C188.586,86.658 188.538,86.727 186.779,91.577L185.393,95.397L184.776,94.817C183.912,94.006 179.046,94.04 177.448,94.869C176.471,95.376 176.413,95.378 176.069,94.925C175.569,94.265 175.592,94.088 176.486,91.767C177.404,89.384 177.512,87.744 176.796,87.095C176.158,86.518 174.358,86.522 173.777,87.102M190.637,94.549C190.239,94.947 190.231,94.91 190.535,94.055C190.78,93.37 190.891,93.258 190.966,93.624C191.022,93.896 190.874,94.312 190.637,94.549M178.599,101.915C176.694,107.002 174.847,108.681 176.464,103.856C177.453,100.903 178.941,98.547 179.817,98.547C179.841,98.547 179.293,100.063 178.599,101.915M198.277,102.012C196.465,106.903 194.538,108.628 196.136,103.928C196.964,101.493 197.512,100.443 198.492,99.41C199.644,98.196 199.63,98.359 198.277,102.012M198.578,188.98C198.322,189.167 197.539,190.861 196.838,192.745C195.574,196.138 195.555,196.17 194.678,196.257C194.191,196.305 193.66,196.455 193.497,196.59C193.31,196.745 192.593,196.681 191.562,196.417C187.713,195.431 185.798,196.635 184.003,201.17L183.004,203.693L182.387,202.785C181.621,201.657 181.622,201.563 182.417,200.391C184.018,198.033 183.584,193.346 181.596,191.515C178.629,188.784 171.202,190.631 171.202,194.101C171.202,195.293 172.027,196.301 173.002,196.301C173.718,196.301 173.841,195.753 172.023,200.673L170.467,204.888L169.173,205.05C166.381,205.401 165.128,206.729 165.126,209.339C165.125,212.413 168.912,214.241 171.68,212.504C172.226,212.161 172.407,212.178 173.414,212.665C175.856,213.847 179.222,213.188 180.982,211.183C181.433,210.669 181.825,210.291 181.852,210.342C181.88,210.394 182.081,210.781 182.299,211.203C183.276,213.095 183.188,213.08 193.084,213.059C203.341,213.036 202.47,213.036 207.266,213.06C211.905,213.083 213.601,212.227 214.558,209.379L214.914,208.322L215.063,209.643C215.589,214.315 222.069,214.552 224.461,209.987C226.149,206.765 222.932,204.885 220.567,207.711C218.829,209.786 218.975,208.764 221.032,204.451C223.806,198.636 223.522,196.807 219.743,196.149C218.786,195.983 218.752,195.941 218.906,195.124C219.363,192.686 217.958,191.113 215.532,191.346C212.896,191.6 211.966,193.843 213.108,197.193C213.342,197.881 213.461,198.516 213.372,198.605C213.283,198.694 213.21,198.579 213.21,198.35C213.21,196.639 208.956,195.58 206.26,196.62C204.915,197.139 204.859,196.617 205.927,193.523C207.273,189.628 206.994,188.639 204.55,188.639C203.453,188.639 202.87,189.072 202.408,190.23C202.154,190.868 202.147,190.87 202.13,190.291C202.092,188.912 199.818,188.073 198.578,188.98M178.898,197.084C178.736,197.623 178.348,198.292 178.035,198.57C177.626,198.933 177.506,198.963 177.609,198.679C177.688,198.461 177.973,197.609 178.242,196.785C178.806,195.058 179.421,195.339 178.898,197.084M189.678,201.1C189.347,201.728 188.935,202.102 188.567,202.11C188.255,202.116 189.108,200.594 189.492,200.456C189.996,200.277 190.037,200.419 189.678,201.1M208.7,201.1C208.369,201.728 207.958,202.102 207.589,202.11C207.278,202.116 208.13,200.594 208.515,200.456C209.018,200.277 209.059,200.419 208.7,201.1M217.701,201.321C217.191,202.321 216.79,202.763 217.041,202.048C217.55,200.598 217.723,200.264 217.964,200.264C218.116,200.264 217.998,200.74 217.701,201.321M177.601,204.396C179.079,205.147 178.862,207.058 177.144,208.409C175.639,209.593 174.012,208.168 174.718,206.285C174.952,205.662 175.267,204.817 175.419,204.408C175.715,203.607 176.048,203.605 177.601,204.396M191.921,206.275C191.688,206.82 191.431,207.444 191.349,207.662C190.929,208.786 190.461,208.983 188.202,208.983C186.989,208.983 185.997,208.907 185.997,208.815C185.997,207.269 186.594,206.675 188.305,206.515C189.249,206.427 190.454,206.13 190.982,205.854C192.342,205.144 192.395,205.168 191.921,206.275M210.808,206.671C209.944,208.866 209.764,208.983 207.225,208.983C206.012,208.983 205.02,208.907 205.02,208.815C205.02,207.269 205.616,206.675 207.328,206.515C208.272,206.427 209.476,206.13 210.004,205.854C211.39,205.131 211.407,205.147 210.808,206.671" style="fill:rgb(252,251,219);" />
        </g>
    </g>
</svg>