<svg version="1.2" baseProfile="tiny-ps" xmlns="http://www.w3.org/2000/svg" viewBox="0 0 500 203" width="500" height="203">
	<title>New Project</title>
	<style>
		tspan { white-space:pre }
	</style>
	<path id="SBB" fill="#000000" aria-label="SBB"  d="M79.7 200.32C119.29 200.32 145.04 177.62 145.04 142.74C145.04 115.61 132.03 100.66 90.22 84.6C60.6 73.25 50.08 65.22 50.08 50.83C50.08 37.54 61.71 26.74 77.76 26.74C91.88 26.74 104.34 34.77 111.54 49.44L136.18 34.22C124.27 11.79 104.06 0.44 78.6 0.44C43.71 0.44 20.46 20.93 20.46 51.66C20.46 78.79 34.58 93.18 74.44 108.41C104.9 120.31 115.42 129.45 115.42 145.23C115.42 162.67 102.4 174.02 80.26 174.02C56.45 174.02 40.11 159.9 37.35 136.37L7.72 143.57C13.26 177.9 42.05 200.32 79.7 200.32ZM182.13 197L254.39 197C293.7 197 316.68 176.51 316.68 141.35C316.68 116.72 305.33 100.38 284.01 93.46C298.41 85.99 306.71 71.31 306.71 52.49C306.71 22.03 284.29 4.04 246.64 4.04L182.13 4.04ZM211.76 83.22L211.76 31.45L246.64 31.45C266.02 31.45 277.09 40.86 277.09 57.75C277.09 74.08 266.57 83.22 248.02 83.22ZM211.76 169.59L211.76 110.07L253.84 110.07C275.15 110.07 287.06 120.59 287.06 138.86C287.06 158.24 274.05 169.59 251.9 169.59ZM357.1 197L429.36 197C468.67 197 491.65 176.51 491.65 141.35C491.65 116.72 480.3 100.38 458.98 93.46C473.37 85.99 481.68 71.31 481.68 52.49C481.68 22.03 459.26 4.04 421.6 4.04L357.1 4.04ZM386.72 83.22L386.72 31.45L421.6 31.45C440.98 31.45 452.06 40.86 452.06 57.75C452.06 74.08 441.54 83.22 422.99 83.22ZM386.72 169.59L386.72 110.07L428.8 110.07C450.12 110.07 462.02 120.59 462.02 138.86C462.02 158.24 449.01 169.59 426.86 169.59Z" />
</svg>