<svg xmlns="http://www.w3.org/2000/svg" width="400" height="400" viewBox="0 0 400 NaN" fill-rule="evenodd" xmlns:v="https://vecta.io/nano">
    <path d="M179.6 63c0 .757.434.761 1.424.013.743-.563.73-.588-.324-.6-.717-.009-1.1.196-1.1.587m-8.344 1.256c-.36.263-.52.613-.355.778s.299.089.299-.167.315-.47.7-.473a2.92 2.92 0 0 0 1.295-.382c.462-.293.385-.361-.345-.306-.516.039-1.234.286-1.594.55m-6.223 1.601c-.358.934.021 1.146.748.419.766-.766.784-1.076.062-1.076-.307 0-.671.296-.81.657m-5.695 1.56c-.4 1.043.237 1.186 1.162.261l.878-.878h-.902c-.495 0-1.008.278-1.138.617m-4.038.883c-.698.233-.628 1.3.086 1.3.322 0 .762-.33.978-.733.401-.749.047-.937-1.064-.567m-4.9 2.163c0 .507-.396.721-1.5.813-1.395.115-1.494.208-1.413 1.324.06.811-.024 1.02-.258.644-.426-.686-2.76-.909-3.782-.362-.613.328-.651.47-.201.755.375.238.072.353-.943.357-1.059.004-1.642.24-1.996.806-.327.524-.933.8-1.757.8-.946 0-1.312.211-1.479.852-.154.588-.426.774-.876.601-.792-.304-2.31.437-1.983.967.132.212-.381.38-1.161.38-1.046 0-1.461.201-1.651.8-.14.44-.602.8-1.027.8s-.773.27-.773.6-.345.6-.767.6c-1.192 0-2.033.431-2.033 1.043 0 .474-1.312.792-2.5.604-.165-.026-.3.313-.3.753s-.261.8-.58.8-.747.298-.951.663-.799.71-1.32.767l-1.249.137c-.165.018-.3.282-.3.586s-.36.648-.8.763-.8.496-.8.847c0 .37-.335.637-.8.637-.444 0-.8.267-.8.6s-.345.6-.767.6c-1.192 0-2.033.431-2.033 1.043 0 .306-.287.557-.637.557s-.732.36-.847.8-.458.8-.763.8-.553.27-.553.6-.356.6-.8.6c-.533 0-.8.267-.8.8 0 .465-.267.8-.637.8-.351 0-.732.36-.847.8s-.458.8-.763.8-.553.27-.553.6c0 .533-.761.809-1.742.633-.71-.127-1.458.907-1.458 2.016 0 .756-.206 1.151-.6 1.151a.6.6 0 0 0-.6.6c0 .333-.356.6-.8.6-.533 0-.8.267-.8.8s-.267.8-.8.8-.8.267-.8.8c0 .444-.267.8-.6.8s-.6.249-.6.553-.36.648-.8.763-.8.496-.8.847c0 .37-.335.637-.8.637-.533 0-.8.267-.8.8 0 .444-.267.8-.6.8s-.6.249-.6.553-.36.648-.8.763c-.613.16-.8.546-.8 1.647 0 1.17-.148 1.437-.8 1.437-.444 0-.8.267-.8.6a.6.6 0 0 1-.6.6c-.366 0-.6.373-.6.956 0 .664-.213.938-.7.9-.593-.047-.718.359-.818 2.644-.109 2.492-.056 2.7.7 2.7.551 0 .818.261.818.8 0 .741.267.8 3.6.8 2.798 0 3.6-.123 3.6-.553 0-.305.36-.648.8-.763s.8-.496.8-.847.27-.637.6-.637.6-.356.6-.8.251-.8.557-.8c.603 0 1.043-.838 1.043-1.986 0-.396.36-.815.8-.93s.8-.496.8-.847.27-.637.6-.637.6-.258.6-.573.36-.687.8-.827.8-.491.8-.78.378-.626.84-.746c.497-.13.726-.406.56-.674s.052-.541.523-.664a1.57 1.57 0 0 0 1.013-1.013c.116-.442.389-.693.608-.557s.511-.108.648-.54a1.79 1.79 0 0 1 1.034-1.034c.432-.137.675-.429.54-.648s.115-.492.557-.608a1.57 1.57 0 0 0 1.013-1.013c.123-.471.398-.687.664-.523s.541-.052.664-.523c.115-.442.553-.893.973-1.003s.763-.486.763-.837.27-.637.6-.637.6-.249.6-.553.36-.648.8-.763.8-.496.8-.847c0-.361.332-.637.767-.637 1.192 0 2.033-.431 2.033-1.043 0-.306.36-.557.8-.557.529 0 .8-.267.8-.787 0-.549.189-.715.624-.548.417.159.698-.044.847-.613.164-.629.535-.852 1.413-.852.854 0 1.25-.226 1.4-.8.115-.44.452-.8.749-.8s.734-.365.973-.811.605-.706.814-.577.38-.135.38-.588c0-.679.253-.824 1.437-.824 1.101 0 1.487-.187 1.647-.8.146-.558.546-.8 1.32-.8.618 0 1.212-.266 1.341-.6s.506-.6.842-.6c.346 0 .613-.348.613-.8 0-.667.267-.8 1.6-.8s1.6-.133 1.6-.8c0-.648.267-.8 1.4-.8.978 0 1.4-.181 1.4-.6s.422-.6 1.4-.6c1.133 0 1.4-.152 1.4-.8 0-.597.267-.8 1.049-.8.887 0 .972-.093.551-.6-.408-.491-.38-.6.151-.6.357 0 .649.27.649.6s.169.6.375.6.348-.36.315-.8-.281-.8-.551-.8c-.314 0-.589-1.004-.766-2.795-.302-3.06-.27-3.454.267-3.305.198.055.36-.358.36-.917 0-1.201 1.004-2.366 2.4-2.782 2.015-.602 2.747-1.854 1-1.709-.647.053-1 .325-1 .771m27.433 2.995c-.111.29.124.465.579.431.422-.032.852-.278.955-.547.111-.29-.124-.465-.579-.431-.422.032-.852.278-.955.547m-6.268.846c-.092.277-.596.586-1.12.687s-1.064.305-1.199.454c-.261.286 2.375-.133 2.667-.424.093-.094.092-.407-.005-.696-.137-.411-.211-.416-.343-.021M164.4 76.4c-.466.301-.349.389.524.394.648.003 1.019-.163.876-.394-.307-.497-.631-.497-1.4 0m-5.6 1.635c0 .201.39.365.867.365s.741-.125.588-.278c-.432-.433-1.455-.493-1.455-.087m-3.6 1.365c-.408.491-.38.6.151.6.357 0 .649-.27.649-.6s-.068-.6-.151-.6-.375.27-.649.6m-2.12.454c-.244.243-1.704.548-3.18.663-1.507.117-.597.683 1.1.683.99 0 1.8-.186 1.8-.413s.405-.576.9-.775c.577-.232.673-.37.267-.387-.349-.014-.748.089-.887.229M170.8 228.6c0 .333-.356.6-.8.6-.788 0-.8.267-.8 18.4s.012 18.4.8 18.4c.444 0 .8.267.8.6 0 .461.511.6 2.2.6s2.2-.139 2.2-.6a.6.6 0 0 1 .6-.6c.525 0 .6-2.311.6-18.4s-.075-18.4-.6-18.4a.6.6 0 0 1-.6-.6c0-.461-.511-.6-2.2-.6s-2.2.139-2.2.6M68 233.013c0 .336-.27.716-.6.842-.453.174-.6.905-.6 2.975 0 2.276.103 2.706.6 2.515.49-.188.6.187.6 2.05 0 1.943.118 2.311.8 2.489.623.163.8.546.8 1.73 0 1.909.328 2.786 1.043 2.786.37 0 .557.47.557 1.4 0 .978.181 1.4.6 1.4.431 0 .6.441.6 1.567 0 1.955.323 2.833 1.043 2.833.368 0 .557.466.557 1.373 0 1.022.205 1.438.8 1.627s.8.605.8 1.627c0 .954.183 1.373.6 1.373.563 0 .789.703.623 1.931-.04.292.299.628.752.747.628.164.825.538.825 1.569 0 1.086.158 1.353.8 1.353.728 0 .973.725.764 2.264-.02.145.25.424.6.62s.636.617.636.936.36.58.8.58c.652 0 .8.267.8 1.437 0 1.101.187 1.487.8 1.647.44.115.8.458.8.763s.27.553.6.553c.584 0 .771.645.616 2.13-.046.441.252.815.754.946.456.12.83.466.83.771s.36.553.8.553c.587 0 .8.267.8 1 0 1.461.036 1.55.86 2.127.415.29.65.695.523.9s.14.373.593.373c.557 0 .824.259.824.8 0 .533.267.8.8.8s.8.267.8.8c0 .44.251.8.557.8s.661.27.788.6.506.6.842.6c.528 0 .851 1.197.668 2.476-.021.151.318.388.753.527s.792.509.792.824.249.573.553.573.648.36.763.8.475.8.8.8.685.36.8.8.496.8.847.8.637.27.637.6.249.6.553.6.648.36.763.8.475.8.8.8.685.36.8.8.496.8.847.8.637.168.637.373.356.486.792.624.774.376.753.527c-.096.668.079 1.272.355 1.229 1.464-.232 2.5.119 2.5.847 0 .444.267.8.6.8a.6.6 0 0 1 .6.6c0 .333.356.6.8.6.533 0 .8.267.8.8 0 .517.267.8.753.8.417 0 .847.357.963.8.152.583.546.8 1.447.8.833 0 1.237.196 1.237.6 0 .333.356.6.8.6.533 0 .8.267.8.8 0 .541.267.8.824.8.453 0 .725.16.604.355-.242.391.689 1.309 1.23 1.212.981-.176 1.742.1 1.742.633 0 .33.34.6.756.6.47 0 .734.261.7.69-.056.695.11.768 1.944.86.564.028 1 .293 1 .607 0 .604.838 1.043 1.99 1.043.398 0 .828.27.955.6.134.351.734.6 1.442.6.946 0 1.213.176 1.213.8 0 .661.267.8 1.533.8 1.975 0 2.331-.389 1.185-1.295-.505-.399-.67-.676-.366-.615.435.087.535-.514.472-2.831-.053-1.928.061-2.854.33-2.687.226.139.302.563.17.941-.19.539-.133.586.266.218.279-.258.757-.373 1.062-.256.39.15.524-.066.451-.731-.067-.618.104-.944.497-.944.33 0 .551.238.49.53s.078.414.307.272.31-.47.18-.73.022-.157.337.228.764.7.997.7.522.225.643.5.181-.021.133-.658c-.072-.961-.286-1.178-1.26-1.28-.645-.068-1.336-.413-1.534-.767-.223-.399-.76-.596-1.412-.519-.773.091-1.176-.122-1.516-.801-.255-.509-.577-.914-.714-.9-1.645.165-2.251-.043-2.251-.775 0-.533-.267-.8-.8-.8-.44 0-.8-.25-.8-.557 0-.601-1.794-1.218-2.418-.832-.21.13-.382-.134-.382-.587 0-.54-.259-.824-.753-.824-.421 0-.847-.359-.966-.811s-.363-.785-.547-.753c-1.157.203-2.067-.135-2.25-.838-.14-.534-.422-.72-.847-.557-.458.176-.637.008-.637-.598 0-.697-.243-.843-1.4-.843-1.133 0-1.4-.152-1.4-.8 0-.44-.249-.8-.553-.8s-.653-.378-.773-.84c-.13-.497-.406-.726-.674-.56s-.544-.063-.674-.56c-.125-.478-.544-.84-.973-.84-.486 0-.753-.283-.753-.8 0-.533-.267-.8-.8-.8-.444 0-.8-.267-.8-.6s-.34-.6-.756-.6c-.474 0-.734-.261-.7-.7.031-.385-.173-.654-.453-.597s-.684-.359-.899-.924c-.217-.571-.58-.91-.818-.763s-.526-.112-.648-.576-.468-.862-.773-.89-.733-.095-.953-.15a8.71 8.71 0 0 0-.775-.15c-.206-.027-.431-.635-.5-1.35-.08-.829-.319-1.26-.659-1.189-.294.062-.63-.253-.747-.7s-.461-.811-.766-.811c-.5 0-.728-.493-.6-1.3.026-.165-.313-.3-.753-.3-.533 0-.8-.267-.8-.8 0-.452-.267-.8-.613-.8-.336 0-.716-.27-.842-.6s-.481-.6-.788-.6-.557-.36-.557-.8c0-.533-.267-.8-.8-.8-.573 0-.8-.267-.8-.938 0-.516-.356-1.26-.791-1.653s-.686-.884-.559-1.089-.148-.473-.61-.594c-.478-.125-.84-.544-.84-.973 0-.486-.283-.753-.8-.753-.733 0-1.09-1.077-.837-2.53.031-.181-.128-.215-.354-.076s-.586-.207-.8-.77-.664-1.024-.999-1.024c-.43 0-.61-.412-.61-1.4 0-1.133-.152-1.4-.8-1.4-.452 0-.8-.267-.8-.613 0-.336-.27-.716-.6-.842s-.6-.557-.6-.955c0-1.152-.439-1.99-1.043-1.99-.356 0-.557-.446-.557-1.237 0-.901-.217-1.295-.8-1.447-.577-.151-.8-.546-.8-1.419 0-.665-.27-1.409-.599-1.653s-.641-.967-.692-1.606c-.058-.722-.361-1.231-.801-1.346-.501-.131-.708-.581-.708-1.539 0-1.086-.158-1.353-.8-1.353-.692 0-.8-.267-.8-1.98 0-1.379-.19-2.086-.625-2.33-.355-.198-.641-.921-.662-1.674-.027-.93-.257-1.381-.775-1.516-.602-.158-.738-.59-.738-2.347 0-1.184-.135-2.132-.3-2.106-1.077.17-1.3-.173-1.3-2.004 0-1.371-.18-2.026-.6-2.188-.33-.126-.6-.506-.6-.842 0-.508-.654-.613-3.8-.613s-3.8.105-3.8.613m88.145 4.387c-.127.33-.469.6-.761.6s-.644.36-.784.8-.512.8-.827.8-.573.36-.573.8c0 .533-.267.8-.8.8-.44 0-.8.249-.8.553s-.36.648-.8.763-.8.496-.8.847-.27.637-.6.637-.6.356-.6.8c0 .533-.267.8-.8.8-.648 0-.8.267-.8 1.4 0 .93-.187 1.4-.557 1.4-.612 0-1.043.841-1.043 2.033 0 .422-.27.767-.6.767-.46 0-.6.508-.6 2.173 0 1.822-.129 2.214-.8 2.427-.756.24-.8.605-.8 6.627 0 6.106.033 6.373.8 6.373.721 0 .8.267.8 2.711 0 2.216.146 2.836.8 3.396.44.377.8 1.137.8 1.689 0 .626.226 1.004.6 1.004.333 0 .6.356.6.8 0 .533.267.8.8.8.642 0 .8.267.8 1.353 0 1.017.199 1.406.8 1.563.44.115.8.496.8.847s.27.637.6.637a.6.6 0 0 1 .6.6c0 .333.356.6.8.6.533 0 .8.267.8.8 0 .648.267.8 1.4.8s1.4.152 1.4.8c0 .533.267.8.8.8.444 0 .8.267.8.6 0 .415.417.6 1.353.6 1.017 0 1.406.199 1.563.8.184.704.546.8 3 .8s2.816.096 3 .8c.197.755.546.8 6.243.8 5.601 0 6.07-.057 6.534-.8.388-.621.933-.8 2.441-.8 1.604 0 1.977-.139 2.15-.8.157-.601.546-.8 1.563-.8.936 0 1.353-.185 1.353-.6s.422-.6 1.4-.6c1.133 0 1.4-.152 1.4-.8 0-.533.267-.8.8-.8s.8-.267.8-.8.267-.8.8-.8c.444 0 .8-.267.8-.6a.6.6 0 0 1 .6-.6c.333 0 .6-.356.6-.8 0-.533.267-.8.8-.8s.8-.267.8-.8.267-.8.8-.8c.44 0 .8-.251.8-.557s.27-.661.6-.788c.377-.144.6-.756.6-1.642 0-1.146.151-1.413.8-1.413.703 0 .8-.267.8-2.2s.097-2.2.8-2.2c.775 0 .8-.265.795-8.5-.006-8.945-.143-10.3-1.042-10.3-.365 0-.553-.475-.553-1.4 0-1.133-.152-1.4-.8-1.4-.667 0-.8-.267-.8-1.6 0-1.156-.167-1.6-.6-1.6-.33 0-.6-.345-.6-.767 0-1.192-.431-2.033-1.043-2.033-.306 0-.557-.36-.557-.8 0-.533-.267-.8-.8-.8-.444 0-.8-.267-.8-.6a.6.6 0 0 0-.6-.6c-.33 0-.6-.287-.6-.637s-.36-.732-.8-.847-.8-.455-.8-.755c0-.753-1.363-1.025-4.412-.882l-2.588.121-.118 2.9c-.075 1.874.035 2.9.313 2.9.236 0 1.008.63 1.715 1.4s1.511 1.4 1.787 1.4.503.276.503.613.27.716.6.842.6.469.6.761.36.644.8.784c.568.18.8.605.8 1.464 0 .874.222 1.269.8 1.42.601.157.8.546.8 1.563 0 .936.185 1.353.6 1.353.461 0 .6.511.6 2.2 0 1.933.097 2.2.8 2.2s.8.267.8 2.2c0 1.614-.148 2.2-.557 2.2-.784 0-1.043.903-1.043 3.633 0 1.837-.134 2.367-.6 2.367-.419 0-.6.422-.6 1.4 0 1.133-.152 1.4-.8 1.4s-.8.267-.8 1.373c0 1.022-.205 1.438-.8 1.627-.44.14-.8.512-.8.827s-.27.573-.6.573-.6.356-.6.8c0 .533-.267.8-.8.8-.44 0-.8.262-.8.582 0 .348-.562.687-1.4.844-.802.151-1.4.5-1.4.819 0 .354-.448.555-1.237.555-.901 0-1.295.217-1.447.8-.164.627-.546.8-1.763.8-1.114 0-1.553.17-1.553.6 0 .503-.844.6-5.2.6s-5.2-.097-5.2-.6c0-.461-.511-.6-2.2-.6-1.933 0-2.2-.097-2.2-.8 0-.648-.267-.8-1.4-.8-.949 0-1.4-.185-1.4-.573 0-.315-.36-.687-.8-.827s-.8-.512-.8-.827-.27-.573-.6-.573-.6-.287-.6-.637-.36-.732-.8-.847-.8-.458-.8-.763-.36-.553-.8-.553c-.533 0-.8-.267-.8-.8 0-.444-.267-.8-.6-.8-.419 0-.6-.422-.6-1.4 0-1.133-.152-1.4-.8-1.4-.703 0-.8-.267-.8-2.2s-.097-2.2-.8-2.2c-.759 0-.8-.267-.8-5.2s.041-5.2.8-5.2c.663 0 .8-.267.8-1.553 0-1.217.173-1.599.8-1.763.583-.152.8-.546.8-1.447 0-.833.196-1.237.6-1.237.419 0 .6-.422.6-1.4 0-1.133.152-1.4.8-1.4.533 0 .8-.267.8-.8s.267-.8.8-.8c.44 0 .8-.25.8-.555 0-.319.598-.668 1.4-.819.838-.157 1.4-.496 1.4-.844 0-.32.36-.582.8-.582.533 0 .8-.267.8-.8 0-.444.267-.8.6-.8.461 0 .6-.511.6-2.2s-.139-2.2-.6-2.2a.6.6 0 0 1-.6-.6c0-.476-.579-.6-2.813-.6-2.131 0-2.868.145-3.042.6m-12.512 77.104c.092.058.572.446 1.067.862.889.749.9.748.9-.104 0-.667-.241-.862-1.067-.862-.586 0-.991.047-.9.104m3.426 1.705c.228.596 1.341 1.124 1.672.794.293-.294-.588-1.135-1.299-1.239-.332-.049-.49.14-.373.445m3.416 1.262a1.33 1.33 0 0 1 .854.854c.126.478.192.413.225-.225.035-.693-.161-.889-.854-.854-.638.033-.703.099-.225.225m-13.143 2.018c-.002.726.948 1.686 1.668 1.686.22 0 .13-.22-.2-.488s-.6-.742-.6-1.054-.195-.631-.433-.711-.434.176-.435.567m17.23-.227c-.171.277-.111.353.152.191.24-.148.622.049.849.439.372.638.414.619.425-.192.013-.952-.93-1.241-1.426-.438m-17.123 2.232c-.446.447-.242 1.707.261 1.606.515-.103 1.083-.704 1.094-1.157.009-.373-1.073-.731-1.355-.449m26.054.906c.377.44.825.8.996.8s.311-.36.311-.8c0-.586-.267-.8-.996-.8-.958 0-.97.031-.311.8m-24.293.204c0 .328.18.596.4.596s.4.27.4.6.356.6.8.6.8-.174.8-.387-.3-.273-.666-.132c-.392.15-.565.092-.42-.142.135-.218-.106-.697-.534-1.064-.659-.564-.78-.575-.78-.071m3.712 2.619c.042.564.337.764 1.073.731.687-.032.787-.106.31-.231-.388-.101-.614-.331-.502-.511s-.055-.427-.369-.547c-.383-.147-.552.036-.512.558m3.088 1.372c0 .286.285.629.633.762 1.587.609 1.904-.105.364-.819-.788-.366-.997-.354-.997.057m3.124.89c.509.098 1.023.433 1.143.746s.381.569.579.569.136-.36-.139-.8c-.305-.489-.89-.779-1.503-.746-.974.053-.976.06-.08.231m4.15 2.015c.086.455.552.731 1.329.787.659.048.972-.012.697-.133s-.5-.476-.5-.787-.373-.567-.829-.567c-.574 0-.789.216-.697.7m4.326 1.429c0 .322.27.689.6.816s.6.133.6.014-.27-.486-.6-.816c-.52-.521-.6-.522-.6-.014m19.7 5.347c.385.1 1.015.1 1.4 0s.07-.183-.7-.183-1.085.082-.7.183" fill="#26f053" />
    <path d="M240.6 68.4c-.136.22.023.4.353.4s.711-.18.847-.4-.023-.4-.353-.4-.711.18-.847.4m1.694.248c-.897.474-1.032.721-.714 1.315.216.403.278.845.139.984s-.042.253.214.253c.761 0 .612 4.259-.158 4.554-.344.132-.509.43-.366.661s.019.712-.275 1.068c-.478.58-.442.599.342.181.662-.353.945-.353 1.162-.003.187.304.109.354-.228.145-.345-.213-.447-.134-.312.238.111.306.405.511.652.456.611-.136.575.592-.04.797-.269.089-.089.267.4.395s.89.05.89-.178c0-.261.202-.245.549.044.302.251.803.359 1.112.24s.917.072 1.35.423.536.507.227.347c-.334-.174-.461-.129-.314.109.136.22.821.417 1.522.437s1.563.343 1.915.717.414.556.139.402-.5-.07-.5.186c0 .261.279.36.632.224 1.005-.385 2.517.166 2.787 1.016.139.438.54.732.914.671.367-.061.92.048 1.229.242.419.262.475.209.223-.21-.277-.461-.228-.472.275-.065.337.273.732.378.877.233s.263-.049.263.213.451.648 1.003.858.957.602.9.872c-.1.473.082.534 1.97.666a1.35 1.35 0 0 1 1.139.898c.184.579.501.775 1.032.636.49-.128.914.075 1.175.563.225.42.743.764 1.151.764.46 0 .72.265.686.7s.246.722.744.757l1.3.1c.275.024.5.324.5.667s.18.512.4.376.4-.057.4.176.54.424 1.2.424c.8 0 1.2.2 1.2.6a.6.6 0 0 0 .6.6c.33 0 .6.338.6.75 0 .526.389.828 1.3 1.012 1.021.206 1.171.344.7.644-.453.288-.284.383.686.388.872.004 1.424.263 1.714.806.235.44.671.8.967.8s.634.36.749.8.496.8.847.8.64.225.644.5c.01.709 1.893 2.409 2.353 2.125.21-.13.441.171.511.669.098.689.43.935 1.388 1.028.848.083 1.326.377 1.463.9.112.428.49.778.841.778s.637.249.637.553.378.653.84.773c.497.13.726.406.56.674s.059.543.547.67c.454.119.935.557 1.067.973s.498.757.813.757.573.27.573.6.249.6.553.6.648.36.763.8.496.8.847.8c.445 0 .637.372.637 1.237 0 .901.217 1.295.8 1.447.44.115.8.353.8.528s.63.968 1.4 1.761 1.4 1.618 1.4 1.834.36.393.8.393c.648 0 .8.267.8 1.4s.152 1.4.8 1.4c.515 0 .8.267.8.747 0 .67.377.755 3.6.821 2.905.058 3.6-.039 3.6-.505 0-.318.27-.681.6-.808 1.034-.397.85-6.893-.211-7.461-.446-.239-.706-.605-.577-.814s-.135-.38-.588-.38c-.557 0-.824-.259-.824-.8 0-.533-.267-.8-.8-.8s-.8-.267-.8-.8c0-.444-.267-.8-.6-.8-.354 0-.603-.369-.606-.9-.006-.83-.774-2.537-.788-1.751-.003.192-.274.127-.602-.145s-.497-.654-.376-.849c.199-.322-.365-.523-1.128-.402-.165.026-.3-.313-.3-.753s-.267-.8-.6-.8-.6-.287-.6-.637-.343-.728-.763-.837-.858-.561-.973-1.003c-.123-.471-.398-.687-.664-.523s-.544-.063-.674-.56c-.12-.462-.468-.84-.773-.84s-.553-.36-.553-.8c0-.533-.267-.8-.8-.8s-.8-.267-.8-.8-.267-.8-.8-.8c-.444 0-.8-.267-.8-.6s-.172-.6-.382-.6c-.505 0-2.631-2.116-2.512-2.5.088-.28-.521-.456-1.206-.347-.165.026-.3-.313-.3-.753 0-.642-.267-.8-1.353-.8-1.017 0-1.406-.199-1.563-.8-.115-.44-.496-.8-.847-.8-.357 0-.637-.331-.637-.753 0-.429-.362-.848-.84-.973s-.723-.41-.571-.657c.149-.24.122-.411-.059-.38-1.599.278-2.93-.102-2.93-.837 0-.44-.258-.8-.573-.8s-.687-.36-.827-.8-.512-.8-.827-.8-.573-.25-.573-.556-.225-.547-.5-.537c-1.572.059-2.228-.188-2.416-.907-.16-.613-.546-.8-1.647-.8-1.141 0-1.437-.155-1.437-.753 0-.429-.362-.848-.84-.973s-.723-.41-.571-.657c.149-.24.122-.411-.059-.38-1.32.23-2.93-.111-2.93-.619 0-.348-.562-.687-1.4-.844-.923-.174-1.4-.486-1.401-.919-.001-.457-.378-.669-1.253-.7-.706-.026-1.413-.331-1.619-.7-.228-.407-.884-.655-1.734-.655-1.052 0-1.315-.139-1.138-.6.127-.33.076-.62-.112-.645l-1.72-.201c-1.317-.15-2.163-.804-1.8-1.392.094-.151-.455-.348-1.22-.438s-1.469.027-1.565.257-.189.044-.206-.415c-.027-.698-.308-.846-1.708-.901-1.519-.059-2.506-.647-2.124-1.266.208-.336-4.649-.166-5.5.192-.774.326-.894-.071-.3-.991.33-.51.389-.513.394-.02.004.426.124.462.451.135.829-.829.197-1.273-.951-.667M323.2 233.8c0 1.133-.152 1.4-.8 1.4-.699 0-.8.267-.8 2.104 0 1.67-.165 2.206-.8 2.603-.607.379-.8.933-.8 2.296 0 1.331-.156 1.797-.6 1.797-.417 0-.6.419-.6 1.373 0 1.017-.205 1.438-.792 1.624-.435.139-.774.376-.753.527.26 1.826-.142 3.65-.855 3.876-.589.187-.8.605-.8 1.584 0 .814-.233 1.42-.6 1.561-.351.134-.6.734-.6 1.442 0 .946-.176 1.213-.8 1.213-.652 0-.8.267-.8 1.437 0 1.111-.186 1.486-.817 1.651-.449.118-.788.506-.753.863.136 1.418-.057 2.049-.63 2.049-.33 0-.6.258-.6.573s-.369.69-.82.833-.79.56-.753.927c.142 1.448-.06 1.982-.827 2.183-.583.152-.8.546-.8 1.447 0 .833-.196 1.237-.6 1.237-.333 0-.6.356-.6.8s-.152.8-.338.8c-.721 0-2.421 1.856-2.686 2.932-.154.623-.526 1.227-.827 1.343s-.549.449-.549.741-.36.644-.8.784-.8.512-.8.827-.25.573-.555.573c-.319 0-.668.598-.819 1.4-.157.838-.496 1.4-.844 1.4-.32 0-.582.36-.582.8 0 .533-.267.8-.8.8-.44 0-.8.227-.8.504s-.367.733-.816 1.013-.707.683-.576.896-.058.387-.422.387-.755.36-.87.8c-.195.745-.619.986-1.465.831-.192-.035-.243.214-.113.553.134.348.024.616-.252.616-.593 0-2.686 2.154-2.686 2.764 0 .24-.287.436-.637.436s-.732.358-.846.796-.362.7-.549.584-.571.156-.851.604-.736.816-1.013.816-.504.36-.504.8c0 .525-.267.8-.776.8-.427 0-.9.199-1.05.443-.191.308-.378.278-.618-.1-.251-.397-.345-.3-.35.357-.004.626-.245.9-.793.9-.536 0-.714.192-.558.6.165.428-.04.602-.712.606-.756.005-.824.083-.343.394.33.213.401.391.158.394s-.962.495-1.6 1.092-1.338 1.102-1.558 1.123c-1.223.113-3.4 1.772-3.4 2.591 0 .22-.36.4-.8.4s-.8.251-.8.557-.285.667-.633.8c-.903.347-.969.314-.713-.355.127-.328.391-.498.588-.376s.358.031.358-.202-.135-.421-.3-.417c-.458.01-2.1 1.847-2.1 2.349 0 .244-.385.444-.856.444s-1.056.242-1.3.539-1.164.941-2.044 1.434-1.251.61-.824.261.561-.634.297-.634-.781.351-1.148.78-.843.67-1.058.538-.263-.036-.105.22.095.462-.138.462-.379.222-.324.494c.066.326-.403.479-1.387.451-1.334-.038-1.445.035-1.086.706.348.65.251.749-.733.749-.624 0-1.376.225-1.673.5-.437.406-.484.387-.25-.1.159-.33-.008-.24-.37.2s-.825.755-1.029.7-.372.102-.372.349c0 .316-.172.306-.582-.034-.834-.692-1.524-.16-1.018.785.255.476.261.838.019.989-.211.13-.271.53-.134.889.14.365.084.55-.127.42-.229-.142-.318.869-.226 2.559.123 2.252.025 2.886-.506 3.275-.604.441-.588.558.181 1.384.85.911 1.814.837 1.45-.111-.132-.345.057-.448.575-.313.425.112 1.025-.008 1.335-.264.384-.319.644-.334.821-.047.428.693 1.012.473 1.012-.381 0-.622.267-.8 1.2-.8.66 0 1.2-.202 1.2-.449 0-.307.193-.289.61.057.335.278.725.39.866.249s.047-.257-.209-.257a.47.47 0 0 1-.467-.467c0-.256.12-.346.268-.199s.597-.031 1-.395c.437-.396.732-.477.732-.201 0 .254.191.462.424.462s.312-.18.176-.4-.046-.4.2-.4.349-.16.228-.355.004-.338.276-.317c1.374.103 3.531-.659 3.333-1.177-.196-.509.618-.727 2.463-.658.275.01.5-.127.5-.304s-.225-.413-.5-.524-.101-.216.386-.233 1.079-.392 1.314-.832c.25-.468.838-.8 1.414-.8.542 0 .986-.191.986-.424s.18-.312.4-.176.4-.033.4-.376c0-.442.394-.624 1.353-.624 1.045 0 1.405-.194 1.576-.852.146-.555.434-.771.827-.62.409.157.532.047.383-.343-.14-.365.158-.718.82-.97.573-.217 1.041-.67 1.041-1.005s.345-.61.767-.61c1.132 0 2.06-.433 1.807-.842-.122-.197.058-.358.399-.358s.845-.36 1.12-.8.726-.8 1.003-.8.504-.36.504-.8c0-.655.267-.8 1.467-.8.806 0 1.355-.111 1.219-.248-.376-.376.848-1.44 1.321-1.148.227.141.387.107.356-.074-.149-.855.092-1.33.674-1.33.351 0 .732-.36.847-.8s.464-.8.775-.8.67-.27.796-.6.481-.6.788-.6.557-.36.557-.8c0-.465.267-.8.637-.8.351 0 .732-.36.847-.8s.546-.8.963-.8.753-.27.753-.6a.6.6 0 0 1 .6-.6c.333 0 .6-.356.6-.8 0-.533.267-.8.8-.8s.8-.267.8-.8.267-.8.8-.8c.444 0 .8-.267.8-.6a.6.6 0 0 1 .6-.6c.333 0 .6-.356.6-.8 0-.533.267-.8.8-.8s.8-.267.8-.8c0-.554.267-.8.867-.8.476 0 .748-.118.603-.263-.362-.362.535-1.381.975-1.109.195.121.355-.221.355-.76 0-.687.209-.963.7-.924s.739-.287.83-1.084c.077-.673.693-1.656 1.5-2.398.754-.691 1.37-1.483 1.37-1.759s.36-.503.8-.503c.648 0 .8-.267.8-1.4s.152-1.4.8-1.4c.533 0 .8-.267.8-.8 0-.444.267-.8.6-.8.415 0 .6-.417.6-1.353 0-1.017.199-1.406.8-1.563.583-.152.8-.546.8-1.447 0-.807.199-1.237.573-1.237.315 0 .687-.36.827-.8s.512-.8.827-.8c.403 0 .573-.481.573-1.624 0-1.089.146-1.533.445-1.348.537.331 1.14-.526 1.149-1.632.003-.442.366-1.028.806-1.303.51-.319.8-.933.8-1.696 0-.797.2-1.197.6-1.197.415 0 .6-.417.6-1.353 0-1.002.201-1.406.773-1.556.551-.144.81-.62.9-1.655.07-.799.287-1.434.482-1.41.602.072 1.032-.957 1.039-2.483.004-.922.226-1.542.606-1.688.422-.162.6-.82.6-2.215 0-1.635.142-2.031.8-2.24s.8-.605.8-2.18c0-1.59.14-1.963.8-2.136.728-.19.8-.546.8-3.967 0-4.741.025-4.717-4.88-4.717h-3.92v1.4m-70.538 82.817c.372.97-.147 1.145-.644.217-.309-.578-.315-.834-.02-.834.235 0 .534.278.664.617m-5.62 1.218c-.401 1.046-.28 1.365.521 1.365.567 0 .708-.206.551-.806-.281-1.078-.775-1.334-1.072-.559" fill="#34e4d2" />
    <path d="M0 149.4c0 1.21.18 2.2.4 2.2.262 0 .4 8.333.4 24.2S.662 200 .4 200c-.22 0-.4.99-.4 2.2v2.2h3.837c3.501 0 3.856-.07 4.047-.8.186-.709.546-.8 3.168-.8h2.958l-.016-27.195-.247-27.8c-.195-.507-1.328-.605-6.99-.605H0v2.2m31.867-1.933c-.415.414-.314 3.41.105 3.15.205-.126.486-.047.624.176s-.029.407-.372.407c-.399 0-.624.361-.624 1 0 .715-.216 1-.757 1-.901 0-1.18 7.925-.299 8.494 1.194.77 8.216.339 8.056-.494-.112-.581.061-.8.633-.8.476 0 .941-.404 1.176-1.024.214-.563.57-.913.79-.776.258.159.401-1.243.401-3.934 0-3.347-.12-4.226-.6-4.411a1.01 1.01 0 0 1-.6-.871c0-.42-.311-.616-.9-.568-2.144.173-2.632.009-2.416-.816.211-.808-4.464-1.286-5.217-.533m65.849.533c-.191.729-.603.976-1.416.847-.165-.026-.279.088-.253.253.14.884-.131 1.3-.847 1.3-.724 0-.8.267-.8 2.8 0 2.787.396 3.444 1.443 2.397.271-.271.376-.008.32.8-.065.945.08 1.203.677 1.203.418 0 .76.27.76.6 0 .461.511.6 2.2.6 1.933 0 2.2.097 2.2.8 0 .44.249.8.553.8s.651.372.77.828c.289 1.104 2.91.986 2.821-.128-.034-.439.226-.7.7-.7.597 0 .756-.294.756-1.4 0-1.142.15-1.4.816-1.4.767 0 .808-.207.7-3.5-.108-3.248-.176-3.498-.946-3.476-.663.02-.793-.167-.648-.929.125-.654.009-.93-.37-.877-1.575.219-2.352-.051-2.352-.818 0-.738-.267-.8-3.437-.8-3.101 0-3.458.078-3.647.8m37.939 1.391c-.04 1.716.082 2.209.547 2.209.92 0 .905 46.707-.015 47.06-.479.184-.598.839-.544 2.988l.069 2.752h3.544c3.277 0 3.544-.06 3.544-.8s.267-.8 3.603-.8h3.602l-.102-27.7-.103-27.7-7.047-.109-7.047-.109-.051 2.209m32.114-.769a9.7 9.7 0 0 0-.047 2.776c.206 1.269-.453 2.537-1.023 1.968-.125-.125-.198 1.721-.163 4.103l.064 4.331 4.342.083c4.135.08 4.333.047 4.138-.7-.151-.575-.003-.783.557-.783.496 0 .763-.28.763-.8 0-.536.267-.8.809-.8.763 0 .806-.235.76-4.2-.04-3.438-.157-4.2-.646-4.2-.329 0-.693-.363-.809-.806s-.414-.783-.662-.753c-1.521.181-2.252-.092-2.252-.841 0-.723-.267-.8-2.782-.8h-2.782l-.267 1.422m42.747-.622c.2.765.012.8-4.353.8H201.6v1.4c0 .925.188 1.4.553 1.4.305 0 .652.376.772.836.162.62.424.771 1.014.583.652-.206.756-.105.581.565-.165.632-.022.816.633.816.58 0 .847.252.847.8 0 .525.267.8.777.8.562 0 .734.222.623.8s.061.8.623.8c.598 0 .777.279.777 1.21 0 .92.238 1.3.992 1.587.696.265.917.574.74 1.036-.205.535-.083.605.647.374.781-.248.865-.175.634.554-.212.667-.098.839.56.839.56 0 .827.258.827.8 0 .533.267.8.8.8s.8.267.8.8c0 .444.267.8.6.8s.621.225.646.5.088.68.139.9.121.625.154.9.331.5.661.5.6.287.6.637.36.732.8.847.8.458.8.763.27.553.6.553c.541 0 .778.475.647 1.3-.026.165.313.3.753.3.716 0 .987.416.847 1.3-.026.165.313.3.753.3.648 0 .8.267.8 1.4 0 .77.172 1.4.382 1.4.521 0 2.418 1.934 2.418 2.465 0 .235.36.334.8.219.739-.193 1.026.286.847 1.416-.026.165.202.3.506.3s.648.36.763.8.496.8.847.8.637.27.637.6.135.579.3.553c.955-.151 1.3.174 1.3 1.226 0 1.452 1.538 3.209 2.846 3.253.525.017.729.122.454.233-.829.334-.563 1.27.4 1.407.601.086.861.361.782.828-.069.415.134.7.5.7.34 0 .618.27.618.6s.356.6.8.6c.533 0 .8.267.8.8s.267.8.8.8.8.267.8.8c0 .444.267.8.6.8s.6.257.6.572.405.63.9.7c.601.086.861.361.782.828-.08.477.144.7.7.7.551 0 .818.261.818.8 0 .444.267.8.6.8a.6.6 0 0 1 .6.6c0 .432.442.6 1.575.6h1.576l-.076-8.7c-.069-8.014-.13-8.696-.775-8.644-.439.034-.7-.226-.7-.7 0-.489-.282-.756-.8-.756-.549 0-.8-.267-.8-.849 0-.723-.092-.772-.623-.332-.342.284-.576.351-.519.149.238-.844-.534-3.368-1.029-3.368-.295 0-.63-.36-.745-.8s-.475-.8-.8-.8-.685-.36-.8-.8-.49-.8-.834-.8c-.391 0-.539-.224-.395-.6.16-.416-.027-.6-.612-.6s-.843-.253-.843-.818c0-.556-.223-.78-.7-.7s-.743-.184-.832-.813c-.083-.584-.331-.854-.669-.724-.371.142-.619-.282-.803-1.369-.163-.965-.485-1.576-.831-1.576-.311 0-.565-.267-.565-.592s-.438-.703-.973-.837c-.649-.163-.898-.442-.746-.838.159-.415.004-.554-.517-.463s-.748-.112-.755-.67c-.005-.44-.279-.8-.609-.8s-.702-.36-.828-.8-.53-.775-.9-.744c-.511.042-.672-.278-.672-1.338s-.193-1.443-.8-1.602c-.44-.115-.8-.479-.8-.809 0-.385-.263-.532-.734-.408-.591.154-.699.007-.553-.754.143-.753.008-.945-.666-.945-.58 0-.847-.252-.847-.8 0-.529-.267-.8-.787-.8-.514 0-.713-.196-.572-.564.131-.339-.114-.669-.612-.827-.456-.145-.829-.521-.829-.836s-.27-.573-.6-.573c-.919 0-2.3-1.587-2.3-2.643 0-.518-.155-.846-.345-.729s-.239-.066-.108-.407c.15-.39.017-.621-.358-.621-.327 0-.69-.36-.805-.8-.189-.723-.546-.8-3.693-.8-3.287 0-3.472.045-3.275.8m30.684.053c0 .608-.306.747-1.647.747-1.545 0-1.634.062-1.453 1.01.161.842.069.971-.554.773-.688-.219-.746.027-.746 3.166 0 3.257.473 4.627 1.195 3.46.217-.352.384-.367.579-.052.15.244.068.443-.184.443s-.381.225-.288.5c.179.533.514.591 3.798.657 1.637.034 2.1.184 2.1.68 0 .351.343.728.763.837s.855.552.968.983c.286 1.093 3.883.977 4.173-.135.104-.397.438-.722.743-.722.802 0 .68-1.108-.147-1.324-.667-.174-.667-.185 0-.23 1.122-.074 1.053-8.429-.072-8.723-.46-.12-.685-.429-.558-.762.141-.365-.062-.561-.581-.561a1.07 1.07 0 0 1-.995-.763c-.301-1.15-7.094-1.135-7.094.016m145.043-.22c-.134.348-.243 1.698-.243 3 0 1.837-.134 2.367-.6 2.367-.33 0-.579.135-.553.3.139.877-.127 1.3-.817 1.3s-.768.294-.747 2.8c.022 2.457.116 2.8.771 2.8.582 0 .746.299.746 1.358v1.358l3.645.049c3.107.042 3.612-.041 3.413-.558-.17-.444.039-.607.778-.607.693 0 .922-.157.729-.5-.226-.4-.175-.4.256 0 .764.709 1.179.62 1.179-.253 0-.418.358-.847.803-.964 1.207-.315 1.173-9.46-.036-9.776a1.07 1.07 0 0 1-.767-.979c0-.502-.249-.753-.7-.707-2.422.246-3.7-.037-3.7-.821 0-1.058-3.757-1.209-4.157-.167m-352.6.132c-.339.214-.467.7-.327 1.236.225.859.211.862-.492.141-.801-.822-.415-1.747.725-1.736.531.005.548.071.094.359m31.832 1.093c-.611.612-.263 2.22.525 2.426.44.115.8.527.8.916s.35.798.779.91c.666.175.753.475.602 2.085-.152 1.624-.067 1.91.621 2.09.599.156.798.546.798 1.562 0 1.086.158 1.353.8 1.353.784 0 1.067 1.278.821 3.7-.046.449.205.7.698.7.634 0 .75.247.658 1.4s.025 1.4.656 1.4c.422 0 .767.255.767.567a.89.89 0 0 0 .5.768c.4.161.4.208 0 .233-.275.018-.5.403-.5.856s.144.734.319.626c.765-.473 1.387.573 1.433 2.406.038 1.538.185 1.934.705 1.896.528-.039.628.256.508 1.5-.128 1.326-.036 1.548.643 1.548.822 0 .93.369.799 2.729-.057 1.044.105 1.375.76 1.546.637.167.833.537.833 1.572 0 .936.185 1.353.6 1.353.649 0 .658.021.743 1.795.038.79.294 1.24.757 1.329.579.111.972 1.3.6 1.815-.055.076.17.47.5.876.344.424.387.611.1.438-.319-.192-.5-.062-.5.361 0 .363.36.755.8.87.706.185 1.059 1.275.847 2.616-.026.165.223.3.553.3.622 0 .734.467.658 2.739-.035 1.021.143 1.389.748 1.547.694.181 1.04 1.232.851 2.585-.021.15.948.272 2.153.272h2.19v-2.172c0-1.904.098-2.171.799-2.171.682 0 .782-.226.677-1.543-.091-1.151.026-1.532.458-1.5.319.024.669-.211.778-.521.136-.389-.005-.486-.457-.312-.36.138-.655.096-.655-.094s.27-.448.6-.575c.351-.134.6-.734.6-1.442 0-.946.176-1.213.8-1.213.723 0 .8-.267.8-2.753 0-2.417-.098-2.779-.8-2.963-.465-.122-.8-.546-.8-1.013 0-.442-.225-.895-.5-1.006-.4-.161-.4-.208 0-.233.275-.018.5-.233.5-.479s-.319-.363-.708-.261c-.599.156-.694-.058-.619-1.396.08-1.434.006-1.566-.793-1.413-.833.16-.875.045-.786-2.157.083-2.061.006-2.326-.676-2.326-.601 0-.797-.329-.894-1.5-.085-1.034-.31-1.488-.724-1.461-.472.031-.571-.365-.464-1.866.115-1.604.004-1.977-.7-2.354-.601-.321-.836-.836-.836-1.833 0-1.119-.154-1.386-.8-1.386-.664 0-.8-.267-.8-1.567 0-.879-.219-1.655-.5-1.768-.4-.161-.4-.208 0-.233.715-.046.621-.832-.1-.832-.431 0-.6-.441-.6-1.567 0-1.955-.323-2.833-1.043-2.833-.37 0-.557-.47-.557-1.4 0-1.121-.155-1.4-.779-1.4-.658 0-.798-.327-.9-2.1L81 149l-7.625-.108c-4.194-.06-7.749.015-7.9.166m213.725.495c0 .426-.361.848-.83.971-.502.131-.8.505-.754.946.137 1.314-.007 1.73-.601 1.73-.465 0-.569.57-.508 2.767.042 1.522.203 2.689.357 2.593.464-.286.898.744.809 1.92-.086 1.121.025 1.192 2.527 1.628.44.077.762.332.716.568-.055.28 1.371.452 4.1.496 4.328.069 4.496.002 4.231-1.672-.026-.165.234-.3.577-.3s.512.18.376.4-.065.4.158.4c.409 0 .525-6.092.136-7.123-.109-.288-.444-.428-.746-.313-.35.135-.548-.074-.548-.577 0-.433-.27-.787-.6-.787-.34 0-.6-.359-.6-.829 0-.614-.233-.809-.9-.755-2.084.168-2.3.036-2.3-1.416v-1.4H282c-2.476 0-2.8.087-2.8.753m14.618-.009c-.276.868.099 2.056.648 2.056.21 0 .253-.208.096-.462-.177-.286-.11-.353.176-.176.254.157.462.615.462 1.019 0 .828.899 1.309 1.8.964.33-.127.6-.021.6.236s.194.346.431.2c.307-.19.359 6.446.181 23.071-.212 19.804-.338 23.387-.831 23.663-1.133.634-.776 4.285.419 4.285.55 0 1.003-.225 1.006-.5.004-.331.106-.357.3-.077.556.802 3.294.577 3.294-.27 0-1.179 5.807-1.134 6.116.047.173.662.546.8 2.159.8h1.951l.032-2.2c.027-1.89-.073-2.2-.713-2.2-.718 0-.745-.831-.745-22.8 0-22.533.009-22.8.8-22.8.648 0 .8-.267.8-1.4s.152-1.4.8-1.4.8-.267.8-1.4v-1.4h-10.173c-9.565 0-10.187.044-10.409.744m32.229-.444c.131.825-.106 1.3-.647 1.3-.55 0-.784.489-.637 1.33.031.182-.312.213-.763.07s-.794-.112-.763.07c.17.974-.18 1.294-1.537 1.406-1.409.116-1.498.203-1.464 1.424.029 1.009-.128 1.3-.7 1.3-1.155 0-1.085 4.215.075 4.519.447.117.762.448.7.737s.284.585.767.659c.537.083.798.342.673.668-.162.422.715.544 4.222.588 2.964.036 4.427-.09 4.427-.382 0-.24-.208-.308-.462-.151-.286.177-.353.11-.176-.176.157-.254.651-.462 1.099-.462.477 0 .9-.331 1.023-.8.115-.44.438-.8.718-.8.378 0 .525-1.136.57-4.4.048-3.567-.048-4.4-.509-4.4-.314 0-.664-.36-.779-.8s-.477-.8-.804-.8-.698-.27-.825-.6c-.239-.624-4.305-.914-4.208-.3m42.353.324c0 .27-.27.594-.6.721s-.6.484-.6.793-.305.811-.677 1.113c-.46.373-.58.389-.376.049.165-.275.11-.5-.123-.5s-.424.36-.424.8c0 .716-.416.987-1.3.847-.165-.026-.3.397-.3.94 0 .739-.161.926-.636.744-.483-.185-.617-.014-.556.712.258 3.066-.012 4.757-.758 4.757-.642 0-.75.316-.75 2.2s.108 2.2.75 2.2c.649 0 .75.319.75 2.367 0 1.519.179 2.439.5 2.568.4.161.4.208 0 .233-.275.018-.5.231-.5.475s.27.339.6.212c.548-.21.791.207.634 1.086-.153.85.489 1.859 1.18 1.859.525 0 .687.194.521.624-.159.417.044.698.613.847.469.122.852.471.852.776s.258.553.573.553.687.36.827.8c.189.595.605.8 1.627.8 1.11 0 1.373.154 1.373.806 0 .636.236.789 1.111.722 1.274-.097 2.21.353 1.872.9-.127.204.14.372.593.372.557 0 .824.259.824.8 0 .648.267.8 1.4.8.93 0 1.4.187 1.4.557 0 .604.838 1.043 1.99 1.043.398 0 .828.27.955.6.144.377.756.6 1.642.6 1.163 0 1.413.147 1.413.83 0 .697.209.809 1.3.7s1.321.014 1.428.77c.07.495.385.9.7.9s.963.391 1.441.869c.634.634.689.8.2.613s-.669-.041-.669.531c0 .433.27.787.6.787.461 0 .6.511.6 2.2s-.139 2.2-.6 2.2c-.432 0-.6.442-.6 1.577 0 1.362-.109 1.556-.8 1.423-.615-.119-.8.061-.8.779 0 .836-.146.913-1.4.744-1.375-.185-1.4-.162-1.4 1.244v1.433h3.285c3.088 0 3.342-.066 4.229-1.1.519-.605.812-.83.651-.5-.172.353-.143.463.071.267.2-.184.364-.467.364-.629s.315-.61.7-.995.7-.507.7-.272c0 .769 1.269.451 1.484-.371.115-.44.458-.8.763-.8s.553-.199.553-.443-.27-.339-.6-.212-.6.056-.6-.158c0-.357.574-.549 1.3-.434.165.026.279-.088.253-.253-.131-.825.106-1.3.647-1.3.419 0 .6-.422.6-1.4 0-.85.196-1.402.5-1.406.333-.004.3-.136-.1-.394s-.433-.39-.1-.394c.372-.004.5-1.236.5-4.806 0-2.933-.156-4.8-.4-4.8-.22 0-.4-.534-.4-1.186 0-.782-.276-1.334-.812-1.62-.559-.3-.777-.764-.7-1.492.078-.741-.138-1.185-.72-1.483-.458-.234-.758-.649-.667-.922.095-.284-.172-.497-.621-.497s-.876-.342-.996-.8c-.15-.574-.546-.8-1.4-.8-.879 0-1.249-.223-1.414-.853-.167-.641-.437-.797-1.085-.627-1.203.315-1.981-.064-1.69-.823.182-.476.072-.57-.438-.374-.493.189-.79-.022-1.071-.759-.273-.718-.655-.999-1.287-.948-1.513.122-1.899.007-1.899-.569 0-.649-1.283-1.056-2.759-.877-.573.07-.816.047-.541-.051 1.128-.401.523-1.413-.734-1.229-1.013.149-1.298.014-1.59-.754-.196-.515-.641-.936-.99-.936s-.532.163-.409.363-.2.162-.718-.083-.924-.722-.901-1.062c.026-.382-.28-.608-.801-.592-.623.019-.794-.164-.653-.7s-.037-.726-.657-.726c-.57 0-.847-.253-.847-.771 0-.424-.315-.831-.699-.905s-.717-.402-.739-.729c-.117-1.748-.211-1.995-.762-1.995-1.01 0-.814-3.051.213-3.319.672-.176.785-.467.652-1.676-.122-1.111.019-1.575.587-1.93 1.553-.97.909-1.742-1.452-1.742-1.471 0-2.2.163-2.2.491m-301.6.792c0 .849-.092.931-.56.5-.391-.361-.437-.666-.151-1.016.587-.718.711-.628.711.516m152.4.335c0 .083.27.375.6.649.491.408.6.38.6-.151 0-.357-.27-.649-.6-.649s-.6.068-.6.151m77.6 3.249c0 .33.292.6.649.6.531 0 .559-.109.151-.6-.274-.33-.566-.6-.649-.6s-.151.27-.151.6m-86.255 5.6c.126.33.078.6-.109.6s-.562-.27-.836-.6c-.405-.488-.385-.6.108-.6.334 0 .71.27.837.6m35.055.049c0 .531-.109.559-.6.151-.33-.274-.6-.566-.6-.649s.27-.151.6-.151.6.292.6.649M25.745 167c-.127.33-.526.603-.888.606-.57.005-.578.057-.057.394.54.349.29.572-.5.447-.165-.026-.3.217-.3.54 0 .358-.235.498-.6.358-.416-.16-.6.027-.6.612 0 .737-.386.952-1.455.809-.141-.019-.408.206-.594.5-.276.434-.34.426-.345-.042-.004-.411-.17-.354-.576.2-.331.45-1.044.776-1.7.776-1.49 0-1.976 2.506-.558 2.877.456.119.828.465.828.77s.36.553.8.553c.533 0 .8.267.8.8 0 .648.267.8 1.4.8s1.4.152 1.4.8c0 .44.251.8.557.8s.661.27.788.6c.174.455.911.6 3.042.6H30v-1.353c0-1.026.197-1.405.817-1.567 1.196-.313 1.131-7.08-.068-7.08-.706 0-.952-.628-.766-1.957.113-.808-.777-1.224-2.064-.967-.858.172-1.119.072-1.119-.426 0-.769.452-.838 1.12-.17.373.373.48.329.48-.2 0-.885-2.32-.954-2.655-.08m136.255.187c0 .533-.193.714-.594.56-.392-.15-.733.135-1 .836-.226.596-.593.949-.832.801s-.526.112-.648.576c-.168.645-.534.84-1.573.84-.864 0-1.353.194-1.353.536 0 .294-.461.746-1.025 1.003-.75.342-.95.345-.745.012.172-.277.064-.383-.274-.272-.822.27-.986 3.121-.18 3.121.343 0 .624.168.624.373s.341.481.757.613.849.595.962 1.027c.148.564.549.787 1.417.787.859 0 1.284.232 1.464.8.14.44.596.8 1.014.8.522 0 .686.194.524.619-.204.529.186.601 2.712.5l2.95-.119.051-1.4c.095-2.603.148-2.8.749-2.8.476 0 .6-.578.6-2.8s-.124-2.8-.6-2.8c-.54 0-.802-.932-.637-2.27.032-.258-.307-.585-.752-.727s-.811-.515-.811-.83c0-.388-.451-.573-1.4-.573-1.126 0-1.4.154-1.4.787m-4.37 9.723c-.049.478-.598.386-.77-.13-.088-.264.056-.408.32-.32s.467.291.45.45M398 178.524c0 .325.283.699.629.832.439.168.59.04.5-.424-.164-.847-1.129-1.195-1.129-.408m-318 2.968c0 .493-.112.513-.6.108-.33-.274-.6-.65-.6-.836s.27-.235.6-.109.6.503.6.837M33 188.8c-.136.22-.142.571-.013.779s-.156.304-.647.21c-.484-.094-1.154.051-1.487.32-.481.39-.545.388-.306-.009.165-.275.11-.5-.123-.5s-.424.347-.424.771-.298.829-.662.9c-.714.139-1.13 6.329-.426 6.329.185 0 .224.18.088.4s.012.4.33.4.675.375.794.832c.151.576.505.809 1.147.756 2.361-.195 3.129.005 3.129.812 0 .533.267.8.8.8.456 0 .8.267.8.621 0 .498.417.597 2.1.5 1.693-.098 2.09-.253 2.047-.805-.029-.377.061-.67.2-.653 1.171.147 1.253-.185 1.253-5.063 0-3.98-.112-5-.551-5-.303 0-.798-.305-1.1-.677-.473-.583-.466-.63.051-.336.358.204.465.194.266-.023-.184-.2-.994-.383-1.8-.407-2.668-.078-2.851-.131-2.611-.757.27-.702-2.428-.891-2.855-.2m136.088.386c-.163.623-.472.753-1.484.625-1.164-.148-1.258-.08-1.048.758.197.782.09.904-.714.816-.926-.102-.946-.035-1.01 3.505-.057 3.135.017 3.577.564 3.367.427-.164.751.077 1.007.751.332.874.615.992 2.387.992 1.702 0 2.01.116 2.01.753 0 .429.362.848.84.973.463.121.722.412.577.647-.175.283.485.427 1.959.427h2.224v-1.353c0-1.017.199-1.406.8-1.563 1.314-.344 1.22-8.569-.1-8.756-.495-.07-.9-.398-.901-.728 0-.412-.439-.611-1.4-.636-2.476-.065-2.799-.153-2.799-.764 0-.343-.36-.6-.843-.6-.585 0-.772.184-.612.6.126.33.056.6-.158.6s-.387-.27-.387-.6c0-.872-.671-.735-.912.186m199.318-.286c-.003.385-.186.723-.406.75s-.58.095-.8.15-.658.123-.973.15c-.364.032-.561.477-.54 1.219.036 1.271-1.083 2.809-1.403 1.927-.098-.273-.189 1.169-.201 3.204-.021 3.392.042 3.7.747 3.7.69 0 .956.423.817 1.3-.026.165.313.3.753.3s.8.267.8.6c0 .461.511.6 2.2.6 1.956 0 2.2.092 2.2.825 0 2.214 2.589.763 2.721-1.525.087-1.511.283-2.1.7-2.1.318 0 .579-.165.579-.367s.121-.682.268-1.066c.204-.53.131-.616-.3-.356-.485.292-.488.243-.019-.334.302-.372.797-.677 1.1-.677 1.089 0 .733-6.814-.412-7.9-1.11-1.052-7.031-1.388-7.043-.4-.004.333-.136.3-.394-.1-.331-.513-.389-.498-.394.1M205.1 189.917c-.503.102-.7.528-.7 1.512 0 .952-.183 1.371-.6 1.371-.721 0-.688-.163-.759 3.762-.049 2.716.043 3.187.651 3.346.501.131.708.58.708 1.539 0 1.086.158 1.353.8 1.353.44 0 .8-.18.8-.4a.4.4 0 0 0-.4-.4c-.22 0-.394-.225-.387-.5s.351-.095.764.4c.425.508 1.202.9 1.787.9.763 0 1.036.207 1.036.785 0 .688.272.782 2.2.759 1.884-.023 2.2-.136 2.2-.785 0-.601.292-.759 1.4-.759.978 0 1.4-.181 1.4-.6 0-.336.357-.6.812-.6.762 0 .808-.23.755-3.785-.031-2.082-.171-3.771-.312-3.753-.807.103-1.255-.133-1.255-.662 0-.456-.503-.601-2.1-.606-1.155-.003-2.37-.181-2.7-.394-.4-.258-.433-.39-.1-.394.275-.003.5-.197.5-.431s-.315-.393-.7-.354c-1.527.155-2.1-.049-2.1-.749 0-.718-1.662-.967-3.7-.555m93.141 11.087a2.21 2.21 0 0 1-.537 1.052c-.519.519-.497-.311.031-1.156.419-.671.613-.631.506.104m88.011.804c-.135.354-.426.532-.645.396-.254-.156-.218-.443.097-.785.61-.662.879-.472.548.389M7.204 203.396c-.272.327-.657.495-.856.372-.51-.316-.022-.968.725-.968.508 0 .533.111.131.596m303.13.083c-.233.282-.584.414-.779.293-.636-.393-.374-.924.425-.864.585.045.674.186.354.571m-99.928 59.345l-.016 25.998.905.4.905.401-.9-.174c-.684-.132-.9.012-.9.602 0 .727.272.769 4.3.663l4.3-.114.104-17.5c.067-11.206.247-17.5.5-17.5.742 0 .991.2.875.703-.063.277.344.678.906.891s.975.617.918.897.257.513.697.518c.534.007.761.24.682.7-.069.407.137.691.5.691.557 0 .797.469.665 1.3-.026.165.313.3.753.3.722 0 .992.423.841 1.319-.029.175.175.266.455.202.808-.185 2.304 1.579 2.304 2.716 0 .685.26 1.106.763 1.237.42.11.853.543.963.963.112.43.548.763.999.763.603 0 .749.197.591.8-.146.556-.012.8.437.8.356 0 .647.27.647.6s.264.6.587.6c.385 0 .505-.242.347-.7-.205-.593-.15-.583.357.068.329.423.512 1.098.407 1.5-.141.539.032.732.655.732.59 0 .847.251.847.827 0 .633.18.77.767.584.621-.198.726-.089.553.573-.165.632-.022.816.633.816.58 0 .847.252.847.8 0 .533.267.8.8.8s.8.267.8.8c0 .444.267.8.6.8a.6.6 0 0 1 .6.6c0 .33.262.6.582.6.676 0 2.64 1.845 2.312 2.172-.121.122-.462.021-.757-.224-.414-.344-.537-.288-.537.24 0 .378.36.781.8.896s.8.458.8.763.249.553.553.553.648.36.763.8c.121.464.546.8 1.009.8.592 0 .748.2.599.767-.149.573.038.803.738.91.516.078.893.363.838.632s.035.47.2.444c.885-.14 1.204.127 1.016.847-.191.73-.012.8 2.037.8h2.247v-26.4V238H252c-1.98 0-3.579.135-3.553.3.594 3.757-.167 35.194-.847 35.016-.44-.115-.8-.458-.8-.763s-.249-.553-.553-.553-.654-.383-.776-.852c-.149-.569-.43-.772-.847-.613-.466.179-.624-.022-.624-.794 0-.837-.152-.994-.8-.825-.58.152-.8.012-.8-.507 0-.394-.361-.81-.802-.925-.544-.143-.721-.42-.551-.863.138-.36.094-.625-.098-.59-.916.167-1.349-.1-1.349-.831 0-.533-.267-.8-.8-.8-.815 0-.945-.303-.816-1.9.053-.655-.143-.9-.718-.9-.603 0-.751.214-.624.9.092.495.053.63-.086.3s-.636-.927-1.104-1.327l-.852-.727.9.441c.695.341.898.324.893-.073-.008-.621-1.728-2.314-2.349-2.314-.244 0-.444-.36-.444-.8s-.258-.8-.573-.8-.687-.36-.827-.8-.512-.8-.827-.8-.573-.27-.573-.6-.356-.6-.8-.6c-.541 0-.8-.267-.8-.824 0-.453-.16-.725-.355-.604-.452.279-1.332-.752-.959-1.125.153-.153-.118-.383-.603-.51s-.883-.479-.883-.784-.36-.553-.8-.553-.8-.267-.8-.6c0-.549-.488-.784-1.33-.637-.181.031-.208-.14-.059-.38s.522-.341.829-.223c.333.128.56-.039.56-.41 0-.344-.36-.719-.8-.834s-.8-.458-.8-.763-.27-.553-.6-.553-.6-.287-.6-.637-.36-.732-.8-.847-.8-.546-.8-.963-.251-.753-.557-.753-.662-.272-.789-.604-.457-.557-.733-.5-.564-.301-.639-.796c-.088-.575-.416-.9-.91-.9-.505 0-.772-.276-.772-.8 0-.44-.255-.8-.567-.8s-.637-.212-.723-.47-1.086-.523-2.223-.587l-2.065-.117-.016 25.998m21.994 5.025c0 .531-.109.559-.6.151-.33-.274-.6-.566-.6-.649s.27-.151.6-.151.6.292.6.649" fill="#242c3c" />
    <path d="M181.024 63.013c-.523.395-1.758.587-3.772.587-2.746 0-5.546.588-6.061 1.274-.114.152-1.221.318-2.459.369-1.652.066-2.393.286-2.78.824-.394.547-1.05.733-2.578.733-1.515 0-2.232.201-2.746.769-.535.591-1.026.716-2.115.539-1.13-.183-1.549-.061-2.065.599-.417.534-1.218.876-2.248.961-.884.073-1.82.425-2.091.786s-.99.78-1.6.933c-1.46.366-2.509 1.535-2.509 2.796 0 .559-.162.972-.36.917-.537-.149-.569.245-.267 3.305.237 2.405.384 2.795 1.051 2.795.427 0 .776-.141.776-.314s.315-.339.7-.369 1.24-.17 1.9-.31l2.091-.361c.491-.059 1.225-.408 1.632-.776s1.311-.67 2.008-.67 1.269-.17 1.269-.377.377-.305.837-.216c.583.112.773-.005.626-.387-.157-.409.32-.598 1.863-.74 2.937-.27 3.635-.425 3.959-.879.157-.22.967-.428 1.8-.464 2.073-.088 3.486-.45 3.647-.933.075-.224 1.464-.404 3.114-.404 2.274 0 3.033-.141 3.208-.598.127-.328.379-.506.56-.393s.444.021.582-.202c.151-.244 2.486-.407 5.84-.407 4.599 0 5.63-.106 5.819-.6.196-.509 1.596-.6 9.2-.6s9.005.091 9.2.6c.19.495 1.234.6 5.941.6 5.374 0 5.723.047 5.92.8.189.722.546.8 3.647.8 2.788 0 3.437.113 3.437.6 0 .33.225.62.5.644l2.7.198c1.346.094 2.372.388 2.644.756.302.41 1.15.602 2.656.602 1.86 0 2.202.111 2.156.7-.044.548.312.727 1.644.823 1.058.077 1.7-.046 1.7-.324 0-.245.208-.318.462-.161.286.177.353.11.176-.177-.217-.35-.5-.35-1.162.003-.784.418-.82.399-.342-.181.294-.356.418-.837.275-1.068s.022-.529.366-.661c.671-.257.947-4.554.292-4.554-.184 0-.341-.225-.349-.5s-.084-.748-.167-1.05.093-.639.391-.747c.402-.147.468.036.254.71-.246.776-.179.863.458.6.41-.17.946-.317 1.191-.327s.358-.354.251-.762c-.185-.708-.219-.71-.732-.033s-.788.329-.611-.791c.069-.442-.666-.365-.953.1-.136.22-.517.4-.847.4s-.489-.18-.353-.4-.039-.4-.389-.4-.743-.278-.873-.617a.92.92 0 0 0-.887-.554c-2.883.279-4.851-.058-4.851-.829 0-.729-.267-.8-3-.8-2.293 0-3-.131-3-.555 0-.671-1.563-.96-5.598-1.036-2.147-.041-3.088-.22-3.319-.633-.487-.87-36.507-.835-37.659.037M146.8 81.751c0 .083.27.375.6.649.491.408.6.38.6-.151 0-.357-.27-.649-.6-.649s-.6.068-.6.151M255.949 84.7c.542 1.017 1.767 1.267 1.389.283-.13-.34-.333-.521-.451-.404s-.484-.009-.816-.282c-.525-.433-.54-.382-.122.403m-116.93 228.869c-.122.198-.1.676.049 1.064.203.529.116.646-.35.468a1.2 1.2 0 0 0-1.128.23c-.399.368-.456.321-.266-.218.132-.378.056-.802-.17-.941-.269-.167-.383.759-.33 2.687.063 2.315-.037 2.918-.472 2.835-.305-.058-.195.178.248.528s.755.802.7 1.006.035.351.2.325c.989-.157 1.334.109 1.1.847-.146.459-.072.8.173.8.235 0 .427-.268.427-.596 0-.504.121-.493.78.071.428.367.669.846.534 1.064-.145.234.028.292.42.142.366-.141.666-.082.666.132s.135.351.3.308c.58-.153 2.109.54 1.909.865-.112.181.29.448.894.594 1.492.36 3.297 1.161 3.297 1.462 0 .136.462.159 1.026.051.739-.141 1.193.042 1.623.655.456.652 1.014.852 2.374.852 1.252 0 1.777.165 1.777.557 0 .645.852 1.043 2.233 1.043.532 0 .967.168.967.373 0 .498 1.42.924 3.489 1.048.93.055 1.977.388 2.329.74.452.451 1.386.639 3.184.639 2.184 0 2.58.112 2.795.792.139.435.376.774.527.753 1.979-.282 6.476.143 6.476.611 0 .705 1.289.854 8.487.981 4.437.078 5.812.23 6.157.682.648.847 16.358.861 16.836.015.252-.445 1.797-.595 7.253-.7 6.045-.117 6.998-.224 7.444-.834.404-.554 1.109-.7 3.367-.7 2.589 0 2.856-.075 2.856-.8s.267-.8 2.967-.8c3.148 0 4.369-.257 4.007-.842-.122-.197.464-.36 1.302-.363 2.112-.008 3.324-.388 3.324-1.042 0-.402.587-.553 2.153-.553 1.817 0 2.186-.125 2.363-.8.175-.668.546-.8 2.247-.8 1.544 0 2.037-.145 2.037-.6 0-.368.374-.6.967-.6 1.893 0 2.997-1.08 1.838-1.797-.218-.135-.3.005-.183.31.299.779-1.102.715-1.704-.078-.384-.507-.356-.731.143-1.11.489-.372.591-1.079.471-3.268-.092-1.69-.003-2.701.226-2.559.211.13.267-.055.127-.42-.137-.359-.086-.754.115-.878s.259-.535.129-.913c-.197-.571-.137-.559.355.072.573.735.6.729.838-.182.135-.518.179-1.01.096-1.092-.302-.303-1.818.76-1.818 1.275 0 .355-.496.516-1.5.486-1.317-.04-1.496.065-1.467.866.031.868-.067.9-2.1.662-1.789-.209-2.133-.146-2.133.389 0 .35-.315.658-.7.683s-.88.088-1.1.139-.824.121-1.343.154c-.607.039-.87.251-.738.594.221.576-.153.662-2.855.66-1.404-.002-1.777.152-1.947.802-.181.694-.542.805-2.62.805-1.608 0-2.556.189-2.853.569-.285.365-1.593.654-3.644.807-2.135.159-3.348.436-3.644.831-.344.459-1.403.593-4.673.593-3.878 0-4.25.066-4.483.8-.247.779-.605.8-13.427.8-12.64 0-13.205-.032-13.973-.8-.703-.703-1.333-.8-5.2-.8-3.4 0-4.4-.121-4.4-.533 0-.616.022-.611-4.176-.925-1.878-.14-3.402-.463-3.729-.79-.313-.313-1.367-.552-2.435-.552-1.387 0-2.062-.21-2.567-.8s-1.18-.8-2.6-.8c-1.451 0-2.09-.204-2.635-.841-.466-.544-1.042-.779-1.634-.666s-1.076-.084-1.372-.559c-.335-.535-.946-.734-2.255-.734-1.331 0-1.797-.156-1.797-.6a.67.67 0 0 0-.6-.65c-.33-.027-.78-.095-1-.15s-.663-.122-.984-.15-.932-.422-1.356-.878-1.016-.776-1.316-.712-1.054-.225-1.678-.641c-.957-.638-1.19-.667-1.494-.187-.252.398-.362.419-.366.068-.003-.275-.261-.5-.573-.5s-.636-.209-.721-.463c-.191-.575-1.791-.856-2.093-.368m-.819 6.064c0 .312.27.786.6 1.054s.42.488.2.488c-.72 0-1.67-.96-1.668-1.686.001-.391.196-.646.435-.567s.433.4.433.711m121 3.967c0 .246-.18.336-.4.2s-.4-.057-.4.176c0 .51.408.534 1.143.068.378-.24.408-.427.1-.618-.244-.15-.443-.072-.443.174M256 325c0 .33.18.6.4.6s.4-.27.4-.6-.18-.6-.4-.6-.4.27-.4.6" fill="#34eca5" />
    <path d="M32.499 148.1c-.278.349-.179.724.325 1.242.703.721.717.718.492-.141-.14-.536-.012-1.022.327-1.236.454-.288.437-.354-.094-.359-.358-.003-.83.219-1.05.494m33.59 1.6c-.286.35-.24.655.151 1.016.468.431.56.349.56-.5 0-1.144-.124-1.234-.711-.516m152.978 1.436c.117.445.464.905.772 1.024.807.309.69-.319-.211-1.135-.74-.669-.764-.665-.561.111M297.4 153.6c.865.956.867.956.867.218 0-.321-.15-.49-.334-.377s-.333.016-.333-.217-.208-.424-.462-.424c-.262 0-.149.346.262.8m.777 13.4l.122 5.676c.068-3.259.067-8.479 0-11.6s-.123-.456-.122 5.924m-88.577-7.6c.274.33.65.6.836.6s.235-.27.109-.6-.503-.6-.837-.6c-.493 0-.513.112-.108.6m34.8-.449c0 .083.27.375.6.649.491.408.6.38.6-.151 0-.357-.27-.649-.6-.649s-.6.068-.6.151M26.8 167.4c0 .345.361.6.849.6.709 0 .767-.099.351-.6-.274-.33-.656-.6-.849-.6s-.351.27-.351.6m130.06 9.38c.088.264.291.466.45.45.478-.049.386-.598-.13-.77-.264-.088-.408.056-.32.32m240.772 1.706c-.018.377.373.882.868 1.122.763.37.804.357.265-.086-.349-.287-.74-.792-.869-1.122-.189-.486-.239-.47-.264.086M78.8 180.764c0 .186.27.562.6.836.488.405.6.385.6-.108 0-.334-.27-.71-.6-.837s-.6-.078-.6.109m318.3 16.193c-.385.292-.7.641-.7.775 0 .45 1.136-.188 1.357-.763.263-.686.232-.687-.657-.012m-99.365 3.943c-.528.845-.55 1.675-.031 1.156.425-.425.785-1.656.484-1.656-.077 0-.281.225-.453.5m87.969.519c-.315.342-.351.629-.097.785.219.136.51-.042.645-.396.331-.861.062-1.051-.548-.389M6.217 203.172c-.401.649.47.846.987.224.402-.485.377-.596-.131-.596-.344 0-.729.168-.856.372m302.983.029c0 .631.699.802 1.134.278.32-.385.231-.526-.354-.571-.429-.032-.78.1-.78.293m-73.748 58.25c.468.412.96 1.019 1.093 1.349.167.417.213.371.148-.152-.051-.414-.543-1.021-1.093-1.349l-1-.597.852.749m-4.252 5.9c0 .083.27.375.6.649.491.408.6.38.6-.151 0-.357-.27-.649-.6-.649s-.6.068-.6.151m12.8 14.197c0 .549 1.103 1.333 1.339.951.115-.186-.139-.556-.565-.822s-.774-.324-.774-.129" fill="#1c2c40" />
</svg>